# xmcd
#
# Track frame offsets:
#	150
#	18802
#	40102
#	58775
#
# Disc length: 1031 seconds
#
# Revision: 0
# Processed by: cddbd v1.5.2PL0 Copyright (c) Steve Scherf et al.
# Submitted via: audiograbber 1.83.01
#
DISCID=27040504
DTITLE=BeeGees - Still Waters - Maxi CD
DYEAR=1997
DGENRE=Blues
TTITLE0=Still waters (run deep) - 7''
TTITLE1=Obsessions
TTITLE2=Stayin' Alive - live
TTITLE3=Still waters (run deep) - 12''
EXTD=
EXTT0=
EXTT1=
EXTT2=
EXTT3=
PLAYORDER=
